<svg version="1.2" xmlns="http://www.w3.org/2000/svg" viewBox="0 0 1551 304" width="1551" height="304"><style></style><path fill-rule="evenodd" d="m642 0h57.5v60.2h77.2v27.5h-77.2l0.5 69.7c0.4 61 0.7 70.9 2.7 79.5 1.3 5.4 3.5 12.5 4.9 15.7 1.4 3.3 4.2 8 6.2 10.5 2 2.5 6.8 6.3 10.7 8.5 6 3.3 8.8 3.9 18.8 4.4 6.5 0.3 15-0.2 19-1 3.9-0.8 10.7-2.9 15-4.7 4.3-1.8 8-2.8 8.2-2.3 0.1 0.6 2 3.7 4.2 6.9 2.1 3.2 4.8 7.2 5.9 8.8 1.9 2.9 1.8 3.1-4.9 6.8-3.8 2.1-11 5.2-16 7-5 1.8-13.6 4-19 4.9-5.9 1-16 1.3-25.5 0.9-8.6-0.3-19.2-1.6-23.5-2.8-4.3-1.2-12.3-4.3-17.6-7-7-3.4-12.5-7.5-19-14-5.8-5.8-11-12.6-14-18.4-2.6-5-6-12.8-7.5-17.3-1.5-4.5-3.6-13.6-4.7-20.3-1.6-10-1.9-30.3-1.9-117.8zm-504.1 52.9c23.4 0.4 27.6 0.8 39.3 3.9 7.2 1.9 17.7 5.7 23.5 8.5 5.8 2.8 14.6 8.3 19.6 12.3 5 3.9 11.3 9.7 13.9 12.9 2.6 3.1 7 9.2 9.7 13.6 2.7 4.3 6.7 11.9 8.8 17 2.1 5 5.3 15.3 10.5 36.6l0.9 138.1h-57.5l-0.5-68.4c-0.4-58-0.8-70.2-2.7-80.8-1.3-6.8-4-17.1-6.2-22.9-2.1-5.8-5.5-13.1-7.5-16.4-2.1-3.2-7-8.8-10.8-12.5-3.8-3.7-9.5-7.9-12.5-9.5-3.1-1.6-9-3.7-13.1-4.8-4.1-1.1-12.5-2-18.6-2-6.1 0-14.4 0.6-18.3 1.3-4 0.8-11.3 3.4-16.4 5.8-6.2 3-11.5 6.9-16.4 12.1-4.1 4.4-9.3 11.9-12.1 17.5-2.6 5.4-5.9 14.2-7.3 19.6-1.4 5.4-3.1 15.6-3.9 22.6-0.9 7.5-1.5 38.8-1.5 138.4l-58.1-0.6v-63.5c0-55.4 0.3-65.1 2.3-75.9 1.3-6.9 4.2-18.1 6.6-24.9 2.3-6.8 6.8-16.8 10-22.2 3.2-5.4 9.7-13.9 14.4-18.9 4.6-4.9 12-11.5 16.3-14.6 4.4-3.1 12.3-7.7 17.7-10.2 5.4-2.5 13.3-5.6 17.6-6.8 4.4-1.3 12-3.1 17-4 6.3-1.2 17.4-1.6 35.3-1.3zm1280.1-0.4c12.4-0.1 23.9 0.6 31.4 1.9 6.4 1.1 16.4 3.6 22.2 5.6 5.7 1.9 14.9 6 20.3 9.1 5.4 3.1 13.8 9.2 18.8 13.7 5 4.5 11.5 11.7 14.6 16 3 4.4 7.6 12 10.1 17.1 2.6 5 6.2 14.4 8.1 20.9 1.9 6.5 4.3 18 5.3 25.5 1.4 10.2 1.9 29.4 1.9 133.5h-56.2l-0.7-35.5-5.5 7.9c-3.1 4.4-9.3 11.1-13.8 14.8-4.5 3.7-12.3 8.7-17.3 11.1-5 2.3-12.7 5.2-17 6.4-4.3 1.2-15.5 2.5-24.8 2.9-10.5 0.4-21.3 0-28.1-1-6.2-0.8-15.9-3-21.6-4.8-5.8-1.8-15.8-6.1-22.2-9.4-9.6-5-14.2-8.5-25-19.2-11.6-11.6-13.9-14.7-19.9-26.8-3.8-7.6-8.1-18.5-9.7-24.2-2.5-9.2-2.8-13.9-2.8-36.7 0-23 0.3-27.4 2.9-36.7 1.6-5.7 5.4-15.7 8.6-22.2 3.1-6.5 9.2-16.2 13.4-21.6 4.3-5.4 11-12.5 14.9-15.8 3.9-3.3 9.7-7.8 13-10 3.2-2.2 10-6 15-8.5 5-2.6 13-5.9 17.7-7.4 4.6-1.6 12.6-3.7 17.6-4.7 5.1-1 17.8-1.9 28.8-1.9zm-33.2 34c-5 2.7-11.5 7.8-16 12.7-4.2 4.5-9.7 12.1-12.1 17-2.4 4.8-5.6 12.6-7.1 17.3-1.5 4.7-3.5 12.4-4.4 17-0.9 4.9-1.6 18.4-1.6 31.5 0 13.4 0.7 26.1 1.6 30.7 0.9 4.3 3.1 12.3 4.8 17.7 1.8 5.4 5.5 13.3 8.2 17.7 2.8 4.3 7.4 9.9 10.2 12.4 2.8 2.6 7.8 6.3 11 8.2 3.3 1.9 10.6 4.7 16.4 6.2 6.2 1.6 14.6 2.6 20.9 2.6 5.7 0 14-0.9 18.3-2 4.3-1.2 11.3-4 15.5-6.2 4.2-2.4 11.2-7.8 15.5-12.1 5.5-5.5 9.5-11.3 13.6-19.6 3.1-6.5 7-16.5 8.5-22.3 1.7-6.6 2.9-16.7 3.4-27.5 0.5-10.4 0.1-22-0.9-30.1-0.9-7.2-2.8-17.2-4.2-22.2-1.4-5.1-4.8-13.5-7.4-18.9-2.6-5.3-8.1-13.3-12.1-17.6-4.5-4.9-10.6-9.8-15.7-12.5-4.6-2.5-11.3-5.3-14.9-6.2-3.6-0.9-12.1-1.7-19-1.6-6.8 0-15 0.8-18.3 1.7-3.2 0.9-9.6 3.6-14.2 6.1zm-933.1-33.6c21.8 0.4 26.5 0.9 38 3.9 7.1 1.9 18.3 6 24.8 9.2 6.5 3.2 15.9 9.3 20.9 13.5 5.1 4.2 12 11.2 15.5 15.5 3.4 4.3 9.2 13.7 12.7 20.9 3.7 7.3 7.9 18.5 9.7 25.5 1.7 6.8 3.8 18.6 4.5 26.2 0.8 7.6 1.4 39 1.4 128.2h-56.2l0.1-37.3-5.6 8.4c-3.1 4.7-8.8 11.3-12.8 14.8-4 3.5-11.9 8.7-17.7 11.5-5.7 2.9-13.9 6.2-18.3 7.4-4.3 1.1-15.5 2.4-24.8 2.8-10.4 0.4-21.3 0-28.1-1-6.1-0.8-15.8-3-21.6-4.8-5.7-1.8-15.7-6.1-22.2-9.4-9.6-5-14.2-8.5-24.9-19.2-11.7-11.6-13.9-14.7-20-26.8-3.7-7.6-8.1-18.5-9.7-24.2-2.4-9.2-2.8-13.9-2.8-36.7 0-23 0.4-27.5 2.9-36.7 1.6-5.7 5.8-16.3 9.4-23.5 3.6-7.2 10-17.4 14.4-22.6 4.3-5.2 12.1-12.9 17.3-17 5.2-4.2 14.8-10.3 21.2-13.6 6.5-3.3 15.6-7.3 20.3-8.8 4.7-1.6 12.6-3.7 17.6-4.7 6.7-1.4 15.9-1.8 34-1.5zm-38.4 33.6c-4.6 2.5-11.6 7.9-15.8 12.3-4.1 4.4-9.6 12-12.1 17.1-2.5 5-5.9 13.2-7.4 18.3-1.6 5-3.7 14.7-4.8 21.6-1 6.8-1.9 18-1.9 24.8 0 6.9 0.6 17.5 1.4 23.6 0.7 6.1 2.3 14.7 3.4 19 1.2 4.3 4 12 6.4 17 2.3 5 7.2 12.4 10.8 16.4 3.6 3.9 9.7 9.1 13.5 11.4 3.9 2.3 11.7 5.4 17.5 6.9 6.2 1.6 14.7 2.6 20.9 2.6 5.8 0 14-0.9 18.3-2 4.3-1.2 11.3-4 15.6-6.2 4.5-2.5 11.1-8 16.2-13.4 5.8-6.2 10.2-12.5 13.6-19.6 2.7-5.8 6.1-15.2 7.7-21 1.7-6.7 3-16.6 3.4-27.5 0.5-10.4 0.1-22-0.9-30.1-0.9-7.2-2.8-17.2-4.2-22.2-1.4-5.1-4.7-13.5-7.4-18.8-2.6-5.4-8-13.3-12.1-17.7-4.5-5-10.5-9.7-15.7-12.5-4.6-2.5-11.3-5.3-14.9-6.2-3.6-0.9-12.1-1.7-18.9-1.6-6.9 0-15.1 0.8-18.3 1.7-3.3 0.9-9.7 3.6-14.3 6.1zm826.2-33.6c12.6 0.2 25.1 1.1 32.7 3.4v23.6h-17c-14.1 0-18.5 0.4-25.8 2.9-6.1 2.1-10.7 4.7-15.3 9-4.2 3.7-7.9 8.9-10.2 13.7-1.9 4.3-4.4 12.3-5.5 17.9-1.7 8.4-2 23.8-2 172.4h-58.9l0.5-80.1c0.4-77.2 0.5-80.7 3.2-92 1.6-6.5 5.5-17.2 8.8-23.9 3.9-8 8.4-14.8 13.3-20.2 4.2-4.4 11.1-10.3 15.4-13.1 4.3-2.8 11.1-6.3 15-7.8 4-1.5 10.8-3.5 15.1-4.5 5.6-1.2 14.5-1.6 30.7-1.3zm-419.7 7.3h57.6l0.4 70.4c0.4 60.7 0.7 71.9 2.7 82.1 1.3 6.5 3.7 15.6 5.4 20.3 1.7 4.7 4.7 11.5 6.7 15.1 2 3.6 6.5 9.5 10.2 13.1 3.6 3.6 9.8 8.1 13.8 10 3.9 1.9 9.8 4.1 13 4.9 3.3 0.7 10.5 1.4 16 1.4 5.6 0 13.3-0.6 17-1.4 3.8-0.9 9.9-2.9 13.4-4.5 3.6-1.7 9.5-5.6 13-8.7 3.6-3.1 8.8-9.2 11.5-13.5 2.8-4.4 6.5-12.3 8.3-17.7 1.8-5.4 4.2-14.8 5.3-20.9 1.6-8.9 2.2-25.1 3.1-150.6h57.6v61.2c0 34.4-0.6 66.1-1.4 72.3-0.7 6.2-2.7 16.5-4.4 22.9-1.7 6.5-4.8 15.7-6.9 20.3-2.1 4.7-6.1 12.1-9 16.3-2.8 4.3-8.1 11-11.7 15-3.6 3.9-10 9.6-14.4 12.6-4.3 3.1-11.3 7.3-15.7 9.5-4.3 2.1-11.6 5.1-16.3 6.6-4.7 1.6-13.8 3.7-20.3 4.8-6.5 1.1-19.3 2-28.7 2-9.4 0-22.3-0.9-28.8-1.9-6.5-1.1-15.6-3.2-20.3-4.8-4.6-1.5-12.3-4.7-17-7.1-4.6-2.3-12.2-7.1-16.9-10.6-4.6-3.5-11.1-9.6-14.4-13.6-3.3-3.9-8.2-11-10.8-15.7-2.7-4.6-6.6-13.5-8.9-19.6-2.2-6.1-5.2-17.8-6.6-25.9-2.2-13.2-2.5-21.4-2.5-79.5z"/></svg>