<svg height="602" viewBox="-1.4 -1.6 1549.1 373.9" width="2500" xmlns="http://www.w3.org/2000/svg"><path d="m283.4 153.4-72.7 4.1c-33.2 1.7-52.1 21.1-53.8 54.2l-4.2 72.8c-.3 7.2 6.6 9.7 12.1 3.8l122.4-122.8c5.5-5.9 3.5-12.4-3.8-12.1zm-118.6-149.1c-5.5-5.9-12.4-3.5-12.1 3.7l4.2 72.9c1.6 33.1 20.6 52.5 53.8 54.2l72.7 4.1c7.3.3 9.3-6.2 3.8-12.1zm-30.3 207.4c-1.7-33.2-20.7-52.5-53.8-54.2l-72.8-4.1c-7.2-.3-9.3 6.5-3.8 12.1l122.4 122.8c5.6 5.9 12.4 3.4 12.1-3.8zm-8-207.4-122.4 122.9c-5.5 5.5-3.4 12.4 3.8 12l72.8-4.1c33.1-1.7 52-21.1 53.8-54.2l4.1-72.8c.3-7.2-6.5-9.6-12.1-3.8z" fill="#4ca15d"/><g fill="#0a2f2a"><path d="m1218.5 48.2h-32.7l-35.5 38.9h28.6z"/><path d="m1365.5 48.2h25.8v196.2h-25.8v-23c-11.1 15-27.4 25.8-49.3 25.8-37.6 0-66.4-27.2-66.4-71.4 0-41.3 30.6-71.6 66.4-71.6 20.1 0 38.2 9.1 49.3 27.1zm0 110.7c-6.2-17.7-22.5-32-44.1-32-25.7 0-45.2 17.1-45.2 49.1 0 30.2 20.1 48.6 45.2 48.6 21.5 0 37.5-12.8 44.1-30.6zm182.2 10.7c0 4.2-.4 8.4-1.1 12.6h-108.2c2.6 27.6 21.9 42.4 45 42.4 17.3 0 32.3-8.4 39.9-20.6l19.5 13.3c-10.4 18.4-33 29.9-60.1 29.9-41.7 0-70.2-27.5-70.2-71.4 0-41 30.2-71.6 68.4-71.6 40.7 0 66.8 27.8 66.8 65.4zm-26.3-9.2c-1.7-20.5-18.2-33.7-40.3-33.7-22.2 0-36.4 13.8-41.1 33.7z" fill-rule="evenodd"/><path d="m1203.9 188c0 26.5-14.3 36.6-35.1 36.6s-35.1-11.2-35.1-36.6v-81h-25.8v79c0 42.1 24 61.2 60.9 61.2 36.8 0 60.8-20.6 60.8-61.2v-79h-25.7zm-326.8-24.7c-19.8-5.2-30.6-8.3-30.6-19.8 0-10.1 9.4-16.7 25.1-16.7 15.6 0 29.8 5.5 39.9 14.6l11.8-20.2c-11.8-11.1-31.6-17-50.4-17-30.9 0-52.1 16.7-52.1 41.7 0 27.5 25 35.2 46.9 40.4 17 4.2 32.4 9.1 32.4 20.9 0 10.7-9.8 17.4-27.5 17.4-16.7 0-33-7-44.9-17l-11.8 20.1c13.6 11.8 36.2 19.5 58.1 19.5 31.3 0 52.1-17 52.1-41.7 0-26.1-21.5-34.8-49-42.1z"/><path d="m1055.8 107h25.7v137.4h-25.7v-23c-11.2 15-27.5 25.8-49.4 25.8-37.6 0-66.4-27.2-66.4-71.4 0-41.3 30.6-71.6 66.4-71.6 20.2 0 38.2 9.1 49.4 27.1zm0 51.8c-6.3-17.6-22.6-31.9-44.2-31.9-25.7 0-45.2 17.1-45.2 49 0 30.3 20.2 48.7 45.2 48.7 21.5 0 37.6-12.8 44.2-30.6zm-559.3 12.6c37.1 5.2 45.4 35.4 55.3 73h-52.6c-7.9-28.6-15.1-60.3-52.6-60.3h-61.9v60.3h-47.2v-196.2h125.9c44.7 0 80.1 18.9 80.1 63.7 0 27.8-18.5 49.5-47.1 53v6.5zm-1.1-55.4c0-20-15.9-28.3-35.1-28.3h-75.6v56.9h75.6c20.6 0 35.1-10.3 35.1-28.6zm292.2 30.3c0 65.4-51.6 98.1-116.6 98.1h-94.5v-196.2h94.5c67.8 0 116.6 37.5 116.6 98.1zm-48.1 0c0-35.9-28.2-58.6-68.5-58.6h-47.4v117.1h47.4c37.5 0 68.5-18.9 68.5-58.5zm-402 168.8h7.8l.3 5.2c1.4-1.9 3.2-3.3 5.2-4.3 2.1-1.1 4.4-1.6 7-1.6 3.3 0 6.3.8 9.1 2.5s4.9 4.2 6.6 7.3c1.6 3.1 2.4 6.7 2.4 10.7s-.9 7.6-2.6 10.7q-2.5 4.8-6.8 7.4c-2.9 1.8-5.9 2.7-9.2 2.7-2.3 0-4.4-.5-6.4-1.5-1.9-1-3.5-2.3-4.8-3.9v22h-8.6zm24.4 31.4q2.5-1.6 3.9-4.5c1-2 1.4-4.3 1.4-7 0-2.8-.4-5.1-1.3-7-1-2-2.2-3.4-3.8-4.4-1.7-1-3.6-1.5-5.7-1.5-2.2 0-4.1.5-5.9 1.5-1.8.9-3.3 2.3-4.5 3.9v15c1.1 1.7 2.5 3.1 4.3 4 1.7 1 3.7 1.5 6 1.5 2.1 0 3.9-.5 5.6-1.5zm29.7 6.6c-3.1-1.7-5.5-4.2-7.2-7.2-1.8-3.2-2.6-6.8-2.6-10.8 0-3.9.8-7.6 2.6-10.7 1.7-3.2 4.1-5.6 7.2-7.4s6.5-2.6 10.2-2.6 7.1.8 10.1 2.6c3.1 1.8 5.5 4.2 7.2 7.3 1.8 3.1 2.7 6.7 2.7 10.7s-.9 7.5-2.7 10.7c-1.7 3.2-4.1 5.6-7.2 7.4s-6.4 2.6-10.1 2.6-7.1-.8-10.2-2.6zm16-6.7c1.7-.9 3-2.4 4-4.4s1.5-4.2 1.5-6.9-.5-5-1.5-7-2.3-3.5-4-4.5-3.7-1.6-5.8-1.6c-2.2 0-4.1.6-5.8 1.5-1.7 1-3.1 2.5-4.1 4.5-.9 1.9-1.5 4.3-1.5 7 0 2.6.6 4.9 1.5 6.9 1 1.9 2.4 3.4 4.1 4.4 1.7 1.1 3.6 1.6 5.8 1.6 2.1 0 4.1-.5 5.8-1.5z" fill-rule="evenodd"/><path d="m430.1 315.1h7.9l.3 7.8c1.5-2.6 3.4-4.6 5.7-6.2 2.3-1.5 4.8-2.3 7.7-2.3 1.5 0 2.6.3 3.6.7v8.5c-1-.3-2.2-.5-3.7-.5-2.4 0-4.8.7-7 2s-4.1 3.2-5.8 5.7v24.3h-8.7zm52.2 38.8c-2.1-1.1-3.6-2.9-4.8-5.1s-1.8-5-1.8-8.3v-25.5h8.6v25c0 2.5.6 4.4 1.9 5.7 1.2 1.3 2.8 2 4.9 2s4.1-.6 6-1.8c1.8-1.3 3.4-3.1 4.8-5.5v-25.4h8.7v40.1h-7.9l-.4-6.4c-1.5 2.1-3.3 3.8-5.5 5.1s-4.7 1.9-7.4 1.9c-2.8 0-5-.6-7.1-1.8zm38.9-38.9h7.9l.3 7.5q2.1-3.7 5.5-5.9 3.3-2.1 7.4-2.1 4.1 0 7.2 2.1c2.1 1.4 3.7 3.5 4.7 6.1 1.7-2.6 3.8-4.5 6.1-6 2.4-1.5 5-2.2 7.8-2.2 2.6 0 4.9.6 6.9 1.9q3.1 1.8 4.7 5.4c1.1 2.4 1.7 5.3 1.7 8.5v24.8h-8.6v-23.7c0-2.8-.6-5.1-1.9-6.6-1.2-1.6-2.9-2.4-5.1-2.4-2 0-3.9.7-5.6 2-1.7 1.4-3.2 3.4-4.5 5.9v24.7h-8.6v-23.7c0-2.9-.7-5.1-1.9-6.7-1.3-1.5-3-2.3-5.2-2.3-2.1 0-3.9.7-5.6 2.1-1.7 1.3-3.2 3.4-4.6 6v24.5h-8.6v-40z"/><path d="m596.6 354.3c-2-.9-3.6-2.2-4.9-4.1-1.2-1.8-1.8-4-1.8-6.5s.7-4.8 2-6.7c1.4-1.8 3.2-3.2 5.7-4.2 2.4-1 5.2-1.5 8.4-1.5 2.9 0 5.7.6 8.4 1.7v-3.1c0-2.5-.8-4.5-2.4-5.8-1.5-1.4-4-2-7.2-2-4.3 0-8.3 1-12.1 3v-7.4c4-2.2 8.2-3.3 12.9-3.3 3.6 0 6.7.6 9.3 2 2.6 1.3 4.6 3.1 5.9 5.4 1.4 2.4 2 5.1 2 8.2v25.1h-7.8l-.3-5.3c-1.4 1.8-3 3.3-5 4.3q-3.1 1.5-6.7 1.5c-2.4 0-4.5-.4-6.4-1.3zm13.4-6.8c1.6-.9 3.1-2.2 4.3-4.1v-4.9c-2.3-.9-4.8-1.4-7.2-1.4-2.8 0-4.9.6-6.3 1.6-1.4 1.1-2.1 2.6-2.1 4.5q0 2.7 1.7 4.1c1.2.9 2.6 1.4 4.4 1.4 1.9 0 3.6-.4 5.2-1.2z" fill-rule="evenodd"/><path d="m656.9 354.1c-2.4-1.1-4.4-2.6-5.8-4.5-1.5-1.9-2.3-4.1-2.6-6.6h8.1c.3 1.8 1.2 3.2 2.6 4.2 1.5.9 3.3 1.5 5.6 1.5 2.2 0 3.9-.5 5.1-1.3 1.3-.9 1.9-2 1.9-3.3 0-1.1-.5-2-1.4-2.6-.8-.7-2.3-1.3-4.4-2l-5.1-1.5c-3.6-1.1-6.4-2.5-8.3-4.3s-2.9-4.2-2.9-7.2c0-2.2.6-4.2 1.8-6.1 1.3-1.8 3-3.3 5.2-4.4s4.7-1.7 7.6-1.7c2.8 0 5.4.6 7.6 1.6s3.9 2.5 5.3 4.4c1.3 1.9 2.1 3.9 2.4 6.4h-7.9c-.4-1.7-1.3-3-2.4-4-1.2-.9-2.9-1.3-5-1.3-2.2 0-3.8.4-4.8 1.3-1.1.8-1.6 1.9-1.6 3.2 0 1.1.5 1.9 1.3 2.7.9.7 2.2 1.3 4 1.8l5.1 1.5c4 1.2 7 2.7 8.9 4.4 1.9 1.8 2.8 4.2 2.8 7.3 0 2.2-.6 4.2-1.9 6.1-1.2 1.8-3 3.3-5.2 4.4-2.3 1.1-5 1.7-7.9 1.7-3 0-5.6-.6-8.1-1.7z"/><path d="m695.3 353.1c-3.1-1.7-5.5-4.2-7.2-7.2-1.8-3.2-2.7-6.8-2.7-10.8 0-3.9.9-7.6 2.7-10.7 1.7-3.2 4.1-5.6 7.2-7.4s6.4-2.6 10.2-2.6c3.7 0 7.1.8 10.1 2.6s5.4 4.2 7.2 7.3 2.7 6.7 2.7 10.7-.9 7.5-2.7 10.7-4.2 5.6-7.2 7.4c-3.1 1.8-6.4 2.6-10.1 2.6-3.8 0-7.1-.8-10.2-2.6zm16-6.7c1.7-.9 3-2.4 4-4.4s1.5-4.2 1.5-6.9-.5-5-1.5-7-2.3-3.5-4-4.5-3.7-1.6-5.8-1.6c-2.2 0-4.1.6-5.8 1.5-1.7 1-3.1 2.5-4.1 4.5-1 1.9-1.5 4.3-1.5 7 0 2.6.5 4.9 1.5 6.9 1 1.9 2.4 3.4 4.1 4.4 1.7 1.1 3.6 1.6 5.8 1.6 2.1 0 4.1-.5 5.8-1.5z" fill-rule="evenodd"/><path d="m741.1 353.1c-3-1.7-5.4-4.2-7.1-7.3-1.8-3.1-2.6-6.7-2.6-10.8 0-4 .8-7.6 2.6-10.7 1.7-3.1 4.1-5.5 7.1-7.3 3.1-1.8 6.5-2.6 10.2-2.6 3.3 0 6.3.6 8.9 2s4.6 3.3 6.2 5.7c1.5 2.4 2.4 5.1 2.8 8h-8c-.4-2.3-1.5-4.2-3.2-5.7s-4-2.2-6.6-2.2c-2.3 0-4.3.5-6 1.5-1.7 1.1-3.1 2.5-4 4.5-.9 1.9-1.4 4.2-1.4 6.9 0 2.8.5 5 1.5 7 .9 1.9 2.2 3.4 3.9 4.4s3.7 1.6 6 1.6q4.1 0 6.6-2.2c1.7-1.4 2.8-3.3 3.3-5.7h8.1c-.4 3-1.3 5.7-2.9 8s-3.7 4.2-6.3 5.5c-2.6 1.4-5.6 2.1-8.9 2.1-3.8 0-7.2-.9-10.2-2.6zm36.5-47c-1.1-1.1-1.6-2.4-1.6-4 0-1.7.5-2.9 1.6-4s2.5-1.6 4-1.6c1.6 0 3 .5 4.1 1.6 1.1 1 1.6 2.4 1.6 4 0 1.5-.6 2.9-1.6 4-1.1 1.1-2.4 1.6-4 1.6s-3-.5-4.1-1.6zm8.3 8.9v40.1h-8.6v-40.1z"/><path d="m803.9 353.1c-3-1.7-5.4-4.2-7.1-7.3s-2.6-6.7-2.6-10.8c0-4 .8-7.4 2.5-10.6 1.7-3.1 4-5.6 7-7.3 3-1.9 6.4-2.7 10.2-2.7s6.9.8 9.7 2.4 5 3.9 6.5 6.6q2.4 4.2 2.4 9.2c0 1.4-.1 2.5-.4 3.6h-29.2c0 2.5.6 4.6 1.6 6.4q1.6 2.7 4.1 4.1c1.7.9 3.7 1.4 5.8 1.4 2.6 0 4.7-.7 6.4-1.9 1.8-1.3 3-2.9 3.6-4.9h8c-.4 2.8-1.5 5.2-3.2 7.4q-2.5 3.3-6.4 5.1c-2.6 1.3-5.5 1.8-8.6 1.8-3.7 0-7.2-.8-10.3-2.5zm18.1-27.6c-.9-1.3-2-2.2-3.3-2.9-1.4-.7-3-1-4.8-1-2.5 0-4.7.7-6.5 2.1-1.8 1.5-3.1 3.4-3.9 6h20.1c-.2-1.5-.8-3-1.6-4.2zm25.2 27.7c-2.8-1.7-5-4.2-6.6-7.3-1.7-3.1-2.4-6.7-2.4-10.8 0-4 .8-7.4 2.5-10.6s4-5.6 6.9-7.4c2.8-1.7 5.9-2.6 9.2-2.6 2.3 0 4.4.5 6.3 1.5 2 1 3.6 2.2 4.9 3.8v-23.3h8.6v58.6h-7.8l-.3-5.3q-2.2 2.8-5.3 4.3c-2.1 1.1-4.4 1.6-7 1.6-3.3 0-6.3-.8-9.1-2.5zm16.4-6.6c1.7-1 3.2-2.4 4.5-4v-15c-1.1-1.6-2.6-3-4.3-3.9-1.7-1-3.8-1.5-6-1.5-2.1 0-3.9.5-5.6 1.5-1.6 1.1-2.9 2.6-3.9 4.5s-1.4 4.2-1.4 6.9.4 5.1 1.3 7c.8 2 2.1 3.5 3.7 4.5 1.6.9 3.5 1.5 5.7 1.5s4.2-.6 6-1.5zm28.6 7.7c-2-.9-3.6-2.2-4.9-4.1-1.2-1.8-1.8-4-1.8-6.5s.7-4.8 2-6.7c1.4-1.8 3.2-3.2 5.7-4.2 2.4-1 5.2-1.5 8.4-1.5 2.9 0 5.7.6 8.4 1.7v-3.1c0-2.5-.8-4.5-2.4-5.8-1.5-1.4-4-2-7.2-2-4.3 0-8.3 1-12.1 3v-7.4c4-2.2 8.2-3.3 12.9-3.3 3.6 0 6.7.6 9.3 2 2.6 1.3 4.5 3.1 5.9 5.4 1.4 2.4 2 5.1 2 8.2v25.1h-7.8l-.3-5.3c-1.4 1.8-3 3.3-5 4.3-2.1 1-4.3 1.5-6.7 1.5s-4.5-.4-6.4-1.3zm13.4-6.8c1.6-.9 3.1-2.2 4.3-4.1v-4.9c-2.3-.9-4.8-1.4-7.2-1.4-2.8 0-4.9.6-6.3 1.6-1.4 1.1-2.2 2.6-2.2 4.5q0 2.7 1.8 4.1c1.2.9 2.6 1.4 4.4 1.4 1.9 0 3.6-.4 5.2-1.2zm29.7 5.7c-2.8-1.7-5-4.2-6.6-7.3-1.7-3.1-2.4-6.7-2.4-10.8 0-4 .8-7.4 2.5-10.6s4-5.6 6.9-7.4c2.8-1.7 5.9-2.6 9.2-2.6 2.3 0 4.4.5 6.3 1.5 2 1 3.6 2.2 4.9 3.8v-23.3h8.6v58.6h-7.9l-.2-5.3q-2.2 2.8-5.3 4.3c-2.1 1.1-4.4 1.6-7 1.6-3.3 0-6.3-.8-9.1-2.5zm16.4-6.6c1.7-1 3.2-2.4 4.5-4v-15c-1.1-1.6-2.6-3-4.3-3.9-1.7-1-3.8-1.5-6-1.5-2.1 0-3.9.5-5.6 1.5-1.6 1.1-2.9 2.6-3.9 4.5s-1.4 4.2-1.4 6.9.4 5.1 1.3 7c.8 2 2.1 3.5 3.7 4.5 1.6.9 3.5 1.5 5.7 1.5s4.2-.6 6-1.5zm31.1 6.5c-3.1-1.7-5.5-4.2-7.2-7.3s-2.6-6.7-2.6-10.8c0-4 .9-7.4 2.6-10.6 1.7-3.1 4-5.6 7-7.3 3-1.9 6.4-2.7 10.2-2.7s6.8.8 9.6 2.4 5.1 3.9 6.6 6.6q2.4 4.2 2.4 9.2c0 1.4-.2 2.5-.4 3.6h-29.2c0 2.5.5 4.6 1.6 6.4q1.6 2.7 4.1 4.1c1.7.9 3.6 1.4 5.8 1.4 2.5 0 4.7-.7 6.4-1.9 1.7-1.3 2.9-2.9 3.6-4.9h8c-.4 2.8-1.5 5.2-3.2 7.4q-2.5 3.3-6.5 5.1c-2.6 1.3-5.4 1.8-8.5 1.8-3.8 0-7.2-.8-10.3-2.5zm18.1-27.6c-.9-1.3-2-2.2-3.4-2.9-1.3-.7-3-1-4.7-1-2.6 0-4.7.7-6.5 2.1-1.9 1.5-3.2 3.4-3.9 6h20.1c-.3-1.5-.8-3-1.6-4.2z" fill-rule="evenodd"/><path d="m1037.1 315h7.8l.3 7.5q2.2-3.7 5.5-5.9 3.3-2.1 7.4-2.1 4.1 0 7.3 2.1c2 1.4 3.6 3.5 4.7 6.1 1.6-2.6 3.7-4.5 6-6 2.4-1.5 5-2.2 7.8-2.2 2.6 0 4.9.6 7 1.9q3 1.8 4.7 5.4c1.1 2.4 1.6 5.3 1.6 8.5v24.8h-8.6v-23.7c0-2.8-.6-5.1-1.9-6.6-1.2-1.6-2.9-2.4-5.1-2.4-2 0-3.9.7-5.5 2-1.7 1.4-3.2 3.4-4.6 5.9v24.7h-8.6v-23.7c0-2.9-.7-5.1-1.9-6.7-1.2-1.5-3-2.3-5.2-2.3-2.1 0-3.9.7-5.6 2.1-1.8 1.3-3.2 3.4-4.6 6v24.5h-8.6v-40z"/><path d="m1112.4 354.3c-2-.9-3.6-2.2-4.9-4.1-1.2-1.8-1.8-4-1.8-6.5s.7-4.8 2-6.7c1.4-1.8 3.2-3.2 5.7-4.2 2.4-1 5.2-1.5 8.4-1.5 2.9 0 5.7.6 8.4 1.7v-3.1c0-2.5-.8-4.5-2.4-5.8-1.5-1.4-3.9-2-7.1-2-4.3 0-8.4 1-12.2 3v-7.4c4-2.2 8.2-3.3 12.9-3.3 3.6 0 6.8.6 9.3 2 2.6 1.3 4.6 3.1 5.9 5.4 1.4 2.4 2.1 5.1 2.1 8.2v25.1h-7.9l-.3-5.3c-1.4 1.8-3 3.3-5 4.3s-4.3 1.5-6.7 1.5-4.5-.4-6.4-1.3zm13.4-6.8c1.6-.9 3.1-2.2 4.3-4.1v-4.9c-2.3-.9-4.7-1.4-7.2-1.4-2.8 0-4.9.6-6.3 1.6-1.4 1.1-2.1 2.6-2.1 4.5q0 2.7 1.7 4.1c1.2.9 2.6 1.4 4.5 1.4 1.8 0 3.5-.4 5.1-1.2z" fill-rule="evenodd"/><path d="m1149.2 306.1c-1.1-1.1-1.6-2.4-1.6-4 0-1.7.5-2.9 1.6-4s2.5-1.6 4.1-1.6c1.5 0 2.9.5 4 1.6 1.1 1 1.6 2.4 1.6 4 0 1.5-.6 2.9-1.6 4-1.1 1.1-2.4 1.6-4 1.6s-3-.5-4.1-1.6zm8.4 8.9v40.1h-8.6v-40.1zm16.8 39.1c-2.4-1.1-4.4-2.6-5.8-4.5s-2.3-4.1-2.6-6.6h8.1c.4 1.8 1.2 3.2 2.6 4.2 1.5.9 3.3 1.5 5.6 1.5 2.2 0 3.9-.5 5.1-1.3 1.3-.9 1.9-2 1.9-3.3 0-1.1-.5-2-1.3-2.6-.9-.7-2.4-1.3-4.5-2l-5.1-1.5c-3.6-1.1-6.4-2.5-8.3-4.3s-2.9-4.2-2.9-7.2c0-2.2.6-4.2 1.8-6.1 1.3-1.8 3-3.3 5.2-4.4s4.8-1.7 7.6-1.7 5.4.6 7.6 1.6 3.9 2.5 5.3 4.4c1.3 1.9 2.1 3.9 2.4 6.4h-7.9c-.4-1.7-1.2-3-2.4-4-1.2-.9-2.9-1.3-5-1.3-2.2 0-3.8.4-4.8 1.3-1 .8-1.6 1.9-1.6 3.2 0 1.1.5 1.9 1.3 2.7.9.7 2.2 1.3 4 1.8l5.1 1.5c4 1.2 7 2.7 8.9 4.4 1.9 1.8 2.8 4.2 2.8 7.3 0 2.2-.6 4.2-1.9 6.1-1.2 1.8-3 3.3-5.2 4.4-2.3 1.1-5 1.7-7.9 1.7-3 0-5.6-.6-8-1.7zm54.8 0c-2.4-1.1-4.4-2.6-5.8-4.5-1.5-1.9-2.3-4.1-2.6-6.6h8.1c.3 1.8 1.2 3.2 2.6 4.2 1.4.9 3.3 1.5 5.6 1.5 2.2 0 3.9-.5 5.1-1.3 1.2-.9 1.8-2 1.8-3.3 0-1.1-.4-2-1.3-2.6-.8-.7-2.3-1.3-4.4-2l-5.2-1.5c-3.5-1.1-6.3-2.5-8.2-4.3s-2.9-4.2-2.9-7.2c0-2.2.6-4.2 1.8-6.1 1.3-1.8 3-3.3 5.2-4.4s4.7-1.7 7.5-1.7 5.4.6 7.7 1.6c2.2 1 3.9 2.5 5.2 4.4 1.4 1.9 2.2 3.9 2.5 6.4h-7.9c-.4-1.7-1.3-3-2.4-4-1.2-.9-2.9-1.3-5.1-1.3-2.1 0-3.7.4-4.7 1.3-1.1.8-1.6 1.9-1.6 3.2 0 1.1.5 1.9 1.3 2.7.9.7 2.2 1.3 4 1.8l5.1 1.5c4 1.2 7 2.7 8.8 4.4 1.9 1.8 2.9 4.2 2.9 7.3 0 2.2-.6 4.2-1.9 6.1-1.2 1.8-3 3.3-5.3 4.4-2.2 1.1-4.9 1.7-7.8 1.7-3 0-5.7-.6-8.1-1.7z"/><path d="m1264.6 354.3c-1.9-.9-3.5-2.2-4.8-4.1-1.2-1.8-1.8-4-1.8-6.5s.6-4.8 2-6.7c1.4-1.8 3.2-3.2 5.7-4.2 2.4-1 5.2-1.5 8.3-1.5 3 0 5.8.6 8.4 1.7v-3.1c0-2.5-.7-4.5-2.3-5.8-1.6-1.4-4-2-7.2-2-4.3 0-8.3 1-12.1 3v-7.4c4-2.2 8.2-3.3 12.8-3.3 3.7 0 6.8.6 9.4 2 2.6 1.3 4.5 3.1 5.9 5.4 1.4 2.4 2 5.1 2 8.2v25.1h-7.9l-.2-5.3c-1.4 1.8-3 3.3-5.1 4.3-2 1-4.2 1.5-6.6 1.5s-4.5-.4-6.5-1.3zm13.5-6.8c1.6-.9 3-2.2 4.3-4.1v-4.9c-2.4-.9-4.8-1.4-7.2-1.4-2.8 0-4.9.6-6.3 1.6-1.5 1.1-2.2 2.6-2.2 4.5q0 2.7 1.8 4.1c1.2.9 2.6 1.4 4.4 1.4s3.5-.4 5.2-1.2z" fill-rule="evenodd"/><path d="m1307.4 353.9c-2.1-1.1-3.6-2.9-4.8-5.1s-1.8-5-1.8-8.3v-25.5h8.6v25c0 2.5.6 4.4 1.9 5.7 1.2 1.3 2.8 2 4.9 2s4.1-.6 6-1.8c1.8-1.3 3.4-3.1 4.8-5.5v-25.4h8.7v40.1h-7.9l-.4-6.4c-1.5 2.1-3.3 3.8-5.5 5.1s-4.7 1.9-7.4 1.9c-2.8 0-5-.6-7.1-1.8z"/><path d="m1352.9 353.2c-2.8-1.7-4.9-4.2-6.6-7.3-1.6-3.1-2.4-6.7-2.4-10.8 0-4 .9-7.4 2.6-10.6s4-5.6 6.8-7.4c2.9-1.7 6-2.6 9.2-2.6 2.4 0 4.5.5 6.4 1.5 2 1 3.6 2.2 4.9 3.8v-23.3h8.6v58.6h-7.9l-.2-5.3q-2.2 2.8-5.3 4.3c-2.1 1.1-4.4 1.6-7 1.6-3.3 0-6.3-.8-9.1-2.5zm16.3-6.6c1.8-1 3.3-2.4 4.5-4v-15c-1.1-1.6-2.5-3-4.3-3.9-1.7-1-3.7-1.5-6-1.5-2.1 0-3.9.5-5.5 1.5-1.6 1.1-2.9 2.6-3.9 4.5s-1.5 4.2-1.5 6.9.5 5.1 1.3 7c.9 2 2.1 3.5 3.8 4.5 1.5.9 3.4 1.5 5.6 1.5 2.3 0 4.3-.6 6-1.5zm28.7 7.7c-1.9-.9-3.6-2.2-4.8-4.1-1.2-1.8-1.8-4-1.8-6.5s.6-4.8 2-6.7c1.4-1.8 3.2-3.2 5.7-4.2 2.4-1 5.2-1.5 8.3-1.5 3 0 5.8.6 8.4 1.7v-3.1c0-2.5-.7-4.5-2.3-5.8-1.6-1.4-4-2-7.2-2-4.3 0-8.3 1-12.1 3v-7.4c4-2.2 8.2-3.3 12.8-3.3 3.7 0 6.8.6 9.4 2 2.6 1.3 4.5 3.1 5.9 5.4 1.4 2.4 2 5.1 2 8.2v25.1h-7.9l-.2-5.3c-1.4 1.8-3 3.3-5.1 4.3-2 1-4.2 1.5-6.6 1.5s-4.5-.4-6.5-1.3zm13.5-6.8c1.6-.9 3-2.2 4.3-4.1v-4.9c-2.4-.9-4.8-1.4-7.2-1.4-2.8 0-4.9.6-6.3 1.6-1.5 1.1-2.2 2.6-2.2 4.5q0 2.7 1.8 4.1c1.2.9 2.6 1.4 4.4 1.4s3.5-.4 5.2-1.2zm0-50.5h10l-11.8 11.6h-7.6z" fill-rule="evenodd"/><path d="m1428.1 315h9.2l11.2 29.8 11.1-29.8h8.8l-15.8 40.1h-8.8z"/><path d="m1480.4 353.1c-3-1.7-5.5-4.2-7.2-7.3-1.6-3.1-2.6-6.7-2.6-10.8 0-4 .9-7.4 2.6-10.6 1.7-3.1 4-5.6 7-7.3 3-1.9 6.4-2.7 10.2-2.7s6.8.8 9.6 2.4c2.9 1.6 5.1 3.9 6.6 6.6q2.4 4.2 2.4 9.2c0 1.4-.1 2.5-.4 3.6h-29.2c0 2.5.6 4.6 1.6 6.4q1.6 2.7 4.1 4.1c1.7.9 3.7 1.4 5.8 1.4 2.6 0 4.7-.7 6.4-1.9 1.7-1.3 2.9-2.9 3.6-4.9h8c-.4 2.8-1.5 5.2-3.2 7.4q-2.5 3.3-6.4 5.1c-2.6 1.3-5.5 1.8-8.6 1.8-3.8 0-7.2-.8-10.3-2.5zm18.1-27.6c-.9-1.3-2-2.2-3.3-2.9-1.4-.7-3-1-4.8-1-2.5 0-4.7.7-6.5 2.1-1.8 1.5-3.2 3.4-3.9 6h20.1c-.2-1.5-.8-3-1.6-4.2z" fill-rule="evenodd"/><path d="m1525.7 296.4v58.7h-8.6v-58.7zm12.1 57.7c-1.1-1.1-1.7-2.5-1.7-4.1 0-1.7.6-3 1.7-4.1s2.5-1.6 4.1-1.6q2.5 0 4.1 1.6c1.1 1 1.7 2.4 1.7 3.9 0 1.6-.6 3-1.7 4.1-1.2 1.2-2.5 1.7-4.2 1.7-1.6 0-2.9-.5-4.1-1.7z"/></g></svg>